<svg xmlns="http://www.w3.org/2000/svg" viewBox="0 0 17 7" width="512" height="211">
  <rect width="17" height="7" fill="white"/>
  <rect x="1" y="0" width="1" height="1" fill="black"/>
  <rect x="2" y="0" width="1" height="1" fill="black"/>
  <rect x="3" y="0" width="1" height="1" fill="black"/>
  <rect x="6" y="0" width="1" height="1" fill="black"/>
  <rect x="7" y="0" width="1" height="1" fill="black"/>
  <rect x="9" y="0" width="1" height="1" fill="black"/>
  <rect x="10" y="0" width="1" height="1" fill="black"/>
  <rect x="12" y="0" width="1" height="1" fill="black"/>
  <rect x="13" y="0" width="1" height="1" fill="black"/>
  <rect x="15" y="0" width="1" height="1" fill="black"/>
  <rect x="16" y="0" width="1" height="1" fill="black"/>
  <rect x="0" y="1" width="1" height="1" fill="black"/>
  <rect x="1" y="1" width="1" height="1" fill="black"/>
  <rect x="3" y="1" width="1" height="1" fill="black"/>
  <rect x="4" y="1" width="1" height="1" fill="black"/>
  <rect x="6" y="1" width="1" height="1" fill="black"/>
  <rect x="7" y="1" width="1" height="1" fill="black"/>
  <rect x="9" y="1" width="1" height="1" fill="black"/>
  <rect x="10" y="1" width="1" height="1" fill="black"/>
  <rect x="12" y="1" width="1" height="1" fill="black"/>
  <rect x="13" y="1" width="1" height="1" fill="black"/>
  <rect x="15" y="1" width="1" height="1" fill="black"/>
  <rect x="16" y="1" width="1" height="1" fill="black"/>
  <rect x="0" y="2" width="1" height="1" fill="black"/>
  <rect x="1" y="2" width="1" height="1" fill="black"/>
  <rect x="3" y="2" width="1" height="1" fill="black"/>
  <rect x="4" y="2" width="1" height="1" fill="black"/>
  <rect x="7" y="2" width="1" height="1" fill="black"/>
  <rect x="8" y="2" width="1" height="1" fill="black"/>
  <rect x="9" y="2" width="1" height="1" fill="black"/>
  <rect x="13" y="2" width="1" height="1" fill="black"/>
  <rect x="14" y="2" width="1" height="1" fill="black"/>
  <rect x="15" y="2" width="1" height="1" fill="black"/>
  <rect x="0" y="3" width="1" height="1" fill="black"/>
  <rect x="1" y="3" width="1" height="1" fill="black"/>
  <rect x="3" y="3" width="1" height="1" fill="black"/>
  <rect x="4" y="3" width="1" height="1" fill="black"/>
  <rect x="8" y="3" width="1" height="1" fill="black"/>
  <rect x="14" y="3" width="1" height="1" fill="black"/>
  <rect x="0" y="4" width="1" height="1" fill="black"/>
  <rect x="1" y="4" width="1" height="1" fill="black"/>
  <rect x="3" y="4" width="1" height="1" fill="black"/>
  <rect x="4" y="4" width="1" height="1" fill="black"/>
  <rect x="7" y="4" width="1" height="1" fill="black"/>
  <rect x="8" y="4" width="1" height="1" fill="black"/>
  <rect x="9" y="4" width="1" height="1" fill="black"/>
  <rect x="13" y="4" width="1" height="1" fill="black"/>
  <rect x="14" y="4" width="1" height="1" fill="black"/>
  <rect x="15" y="4" width="1" height="1" fill="black"/>
  <rect x="0" y="5" width="1" height="1" fill="black"/>
  <rect x="1" y="5" width="1" height="1" fill="black"/>
  <rect x="3" y="5" width="1" height="1" fill="black"/>
  <rect x="4" y="5" width="1" height="1" fill="black"/>
  <rect x="6" y="5" width="1" height="1" fill="black"/>
  <rect x="7" y="5" width="1" height="1" fill="black"/>
  <rect x="9" y="5" width="1" height="1" fill="black"/>
  <rect x="10" y="5" width="1" height="1" fill="black"/>
  <rect x="12" y="5" width="1" height="1" fill="black"/>
  <rect x="13" y="5" width="1" height="1" fill="black"/>
  <rect x="15" y="5" width="1" height="1" fill="black"/>
  <rect x="16" y="5" width="1" height="1" fill="black"/>
  <rect x="1" y="6" width="1" height="1" fill="black"/>
  <rect x="2" y="6" width="1" height="1" fill="black"/>
  <rect x="3" y="6" width="1" height="1" fill="black"/>
  <rect x="6" y="6" width="1" height="1" fill="black"/>
  <rect x="7" y="6" width="1" height="1" fill="black"/>
  <rect x="9" y="6" width="1" height="1" fill="black"/>
  <rect x="10" y="6" width="1" height="1" fill="black"/>
  <rect x="12" y="6" width="1" height="1" fill="black"/>
  <rect x="13" y="6" width="1" height="1" fill="black"/>
  <rect x="15" y="6" width="1" height="1" fill="black"/>
  <rect x="16" y="6" width="1" height="1" fill="black"/>
</svg>
