<svg xmlns="http://www.w3.org/2000/svg" viewBox="0 0 17 17" width="512" height="512">
  <rect width="17" height="17" fill="white"/>
  <rect x="1" y="5" width="1" height="1" fill="black"/>
  <rect x="2" y="5" width="1" height="1" fill="black"/>
  <rect x="3" y="5" width="1" height="1" fill="black"/>
  <rect x="6" y="5" width="1" height="1" fill="black"/>
  <rect x="7" y="5" width="1" height="1" fill="black"/>
  <rect x="9" y="5" width="1" height="1" fill="black"/>
  <rect x="10" y="5" width="1" height="1" fill="black"/>
  <rect x="12" y="5" width="1" height="1" fill="black"/>
  <rect x="13" y="5" width="1" height="1" fill="black"/>
  <rect x="15" y="5" width="1" height="1" fill="black"/>
  <rect x="16" y="5" width="1" height="1" fill="black"/>
  <rect x="0" y="6" width="1" height="1" fill="black"/>
  <rect x="1" y="6" width="1" height="1" fill="black"/>
  <rect x="3" y="6" width="1" height="1" fill="black"/>
  <rect x="4" y="6" width="1" height="1" fill="black"/>
  <rect x="6" y="6" width="1" height="1" fill="black"/>
  <rect x="7" y="6" width="1" height="1" fill="black"/>
  <rect x="9" y="6" width="1" height="1" fill="black"/>
  <rect x="10" y="6" width="1" height="1" fill="black"/>
  <rect x="12" y="6" width="1" height="1" fill="black"/>
  <rect x="13" y="6" width="1" height="1" fill="black"/>
  <rect x="15" y="6" width="1" height="1" fill="black"/>
  <rect x="16" y="6" width="1" height="1" fill="black"/>
  <rect x="0" y="7" width="1" height="1" fill="black"/>
  <rect x="1" y="7" width="1" height="1" fill="black"/>
  <rect x="3" y="7" width="1" height="1" fill="black"/>
  <rect x="4" y="7" width="1" height="1" fill="black"/>
  <rect x="7" y="7" width="1" height="1" fill="black"/>
  <rect x="8" y="7" width="1" height="1" fill="black"/>
  <rect x="9" y="7" width="1" height="1" fill="black"/>
  <rect x="13" y="7" width="1" height="1" fill="black"/>
  <rect x="14" y="7" width="1" height="1" fill="black"/>
  <rect x="15" y="7" width="1" height="1" fill="black"/>
  <rect x="0" y="8" width="1" height="1" fill="black"/>
  <rect x="1" y="8" width="1" height="1" fill="black"/>
  <rect x="3" y="8" width="1" height="1" fill="black"/>
  <rect x="4" y="8" width="1" height="1" fill="black"/>
  <rect x="8" y="8" width="1" height="1" fill="black"/>
  <rect x="14" y="8" width="1" height="1" fill="black"/>
  <rect x="0" y="9" width="1" height="1" fill="black"/>
  <rect x="1" y="9" width="1" height="1" fill="black"/>
  <rect x="3" y="9" width="1" height="1" fill="black"/>
  <rect x="4" y="9" width="1" height="1" fill="black"/>
  <rect x="7" y="9" width="1" height="1" fill="black"/>
  <rect x="8" y="9" width="1" height="1" fill="black"/>
  <rect x="9" y="9" width="1" height="1" fill="black"/>
  <rect x="13" y="9" width="1" height="1" fill="black"/>
  <rect x="14" y="9" width="1" height="1" fill="black"/>
  <rect x="15" y="9" width="1" height="1" fill="black"/>
  <rect x="0" y="10" width="1" height="1" fill="black"/>
  <rect x="1" y="10" width="1" height="1" fill="black"/>
  <rect x="3" y="10" width="1" height="1" fill="black"/>
  <rect x="4" y="10" width="1" height="1" fill="black"/>
  <rect x="6" y="10" width="1" height="1" fill="black"/>
  <rect x="7" y="10" width="1" height="1" fill="black"/>
  <rect x="9" y="10" width="1" height="1" fill="black"/>
  <rect x="10" y="10" width="1" height="1" fill="black"/>
  <rect x="12" y="10" width="1" height="1" fill="black"/>
  <rect x="13" y="10" width="1" height="1" fill="black"/>
  <rect x="15" y="10" width="1" height="1" fill="black"/>
  <rect x="16" y="10" width="1" height="1" fill="black"/>
  <rect x="1" y="11" width="1" height="1" fill="black"/>
  <rect x="2" y="11" width="1" height="1" fill="black"/>
  <rect x="3" y="11" width="1" height="1" fill="black"/>
  <rect x="6" y="11" width="1" height="1" fill="black"/>
  <rect x="7" y="11" width="1" height="1" fill="black"/>
  <rect x="9" y="11" width="1" height="1" fill="black"/>
  <rect x="10" y="11" width="1" height="1" fill="black"/>
  <rect x="12" y="11" width="1" height="1" fill="black"/>
  <rect x="13" y="11" width="1" height="1" fill="black"/>
  <rect x="15" y="11" width="1" height="1" fill="black"/>
  <rect x="16" y="11" width="1" height="1" fill="black"/>
</svg>
